# xmcd
#
# Track frame offsets:
#  150
#  11874
#  23560
#  37142
#  48523
#  60137
#  75497
#  87396
#  100912
#  111208
#  122223
#  135163
#  148526
#  160960
#
# Disc length: 2337 seconds
#
# Revision: 0
# Processed by: cddbd v1.5.1PL0 Copyright (c) Steve Scherf et al.
# Submitted via: Collectorz.com Music Collector 6.9
#
DISCID=af091f0e
DTITLE=Varioous Artists - Country Love Songs
DYEAR=1900
DGENRE=
TTITLE0=Nelson, Willie - Is There Something On Your Mind
TTITLE1=Anderson, Lynn - YHou're My Man
TTITLE2=Houston, David - Almost Persuaded
TTITLE3=Drusky, Roy - Blue Eyes Crying In The Rain
TTITLE4=Gibson, Don - I Can't Stop Loving You
TTITLE5=Lucy J. Dalton - Taking It Easy
TTITLE6=Jennings, Waylon - Crying
TTITLE7=Milsap, Ronnie - Kentucky Woman
TTITLE8=Fender, Freddy - Before The Nest Teardrop Falls
TTITLE9=Parton, Dolly - It Wasn't God Who Made Honky Tonk Angels
TTITLE10=Paycheck, Johnny - She's All I Got
TTITLE11=Kenny Rodgers - Ruby Don't Take Your Love To Town
TTITLE12=Wagoner, Porter - Green Green Grass Of Home
TTITLE13=Wells, Kitty - Makin' Believe
EXTD=
EXTT0=
EXTT1=
EXTT2=
EXTT3=
EXTT4=
EXTT5=
EXTT6=
EXTT7=
EXTT8=
EXTT9=
EXTT10=
EXTT11=
EXTT12=
EXTT13=
PLAYORDER=
